<?xml version="1.0" encoding="UTF-8"?>
<svg width="56px" height="10px" viewBox="0 0 56 10" version="1.1" xmlns="http://www.w3.org/2000/svg" xmlns:xlink="http://www.w3.org/1999/xlink">
    <!-- Generator: Sketch 63.1 (92452) - https://sketch.com -->
    <title>Group 4 Copy 4</title>
    <desc>Created with Sketch.</desc>
    <g id="Home" stroke="none" stroke-width="1" fill="none" fill-rule="evenodd">
        <g id="Group-4-Copy-4" transform="translate(0.000000, -1.000000)">
            <circle id="Oval-Copy-2" fill="#E82425" cx="23.1" cy="7.75" r="1.25"></circle>
            <path d="M3.177,9.088 C4.838,9.088 6.037,7.889 6.037,6.228 C6.037,4.567 4.838,3.368 3.177,3.368 C1.505,3.368 0.317,4.567 0.317,6.228 C0.317,7.889 1.505,9.088 3.177,9.088 Z M3.177,8.043 C2.187,8.043 1.527,7.295 1.527,6.228 C1.527,5.161 2.187,4.413 3.177,4.413 C4.156,4.413 4.827,5.161 4.827,6.228 C4.827,7.295 4.156,8.043 3.177,8.043 Z M9.337,9 L10.536,5.139 L11.735,9 L12.846,9 L14.551,3.456 L13.33,3.456 L12.285,7.328 L11.097,3.456 L9.986,3.456 L8.787,7.328 L7.742,3.456 L6.521,3.456 L8.237,9 L9.337,9 Z M16.718,9 L16.718,6.569 C16.718,5.238 17.279,4.446 18.214,4.446 C18.918,4.446 19.347,4.93 19.347,5.623 L19.347,9 L20.546,9 L20.546,5.348 C20.546,4.149 19.721,3.368 18.544,3.368 C17.73,3.368 17.092,3.786 16.718,4.38 L16.718,3.456 L15.519,3.456 L15.519,9 L16.718,9 Z" id="own" fill="#FFFFFF" fill-rule="nonzero"></path>
            <path d="M27.277,9.088 C28.014,9.088 28.696,8.714 29.015,8.153 L29.015,9 L30.192,9 L30.192,5.546 C30.192,4.16 29.224,3.368 27.816,3.368 C26.639,3.368 25.693,4.083 25.517,5.172 L26.595,5.37 C26.672,4.71 27.145,4.314 27.816,4.314 C28.542,4.314 29.015,4.732 29.015,5.414 L29.015,5.491 L27.97,5.601 C26.265,5.777 25.418,6.36 25.418,7.449 C25.418,8.395 26.177,9.088 27.277,9.088 Z M27.519,8.164 C26.958,8.164 26.595,7.856 26.595,7.416 C26.595,6.932 27.057,6.602 27.959,6.503 L29.015,6.382 L29.015,6.613 C29.004,7.515 28.454,8.164 27.519,8.164 Z M34.482,9.088 C36.176,9.088 37.133,7.9 37.133,6.228 C37.133,4.556 36.176,3.368 34.504,3.368 C33.789,3.368 33.14,3.687 32.81,4.149 L32.81,1.212 L31.611,1.212 L31.611,9 L32.81,9 L32.81,8.296 C33.074,8.758 33.745,9.088 34.482,9.088 Z M34.328,8.043 C33.36,8.043 32.722,7.317 32.722,6.228 C32.722,5.128 33.36,4.413 34.328,4.413 C35.296,4.413 35.934,5.128 35.934,6.228 C35.934,7.317 35.296,8.043 34.328,8.043 Z M38.838,2.532 C39.289,2.532 39.63,2.191 39.63,1.762 C39.63,1.322 39.289,0.981 38.838,0.981 C38.398,0.981 38.068,1.322 38.068,1.762 C38.068,2.191 38.398,2.532 38.838,2.532 Z M39.443,9 L39.443,3.456 L38.244,3.456 L38.244,9 L39.443,9 Z M42.061,9 L42.061,1.212 L40.862,1.212 L40.862,9 L42.061,9 Z M44.074,2.532 C44.525,2.532 44.866,2.191 44.866,1.762 C44.866,1.322 44.525,0.981 44.074,0.981 C43.634,0.981 43.304,1.322 43.304,1.762 C43.304,2.191 43.634,2.532 44.074,2.532 Z M44.679,9 L44.679,3.456 L43.48,3.456 L43.48,9 L44.679,9 Z M48.364,9.088 C48.672,9.088 48.98,9.044 49.244,8.956 L49.167,7.889 C48.958,7.988 48.705,8.021 48.496,8.021 C48.045,8.021 47.737,7.735 47.737,7.185 L47.737,4.479 L49.167,4.479 L49.167,3.456 L47.737,3.456 L47.737,1.806 L46.538,1.806 L46.538,3.456 L45.57,3.456 L45.57,4.479 L46.538,4.479 L46.538,7.251 C46.538,8.516 47.319,9.088 48.364,9.088 Z M52.214,11.002 L55.129,3.456 L53.897,3.456 L52.412,7.295 L50.96,3.456 L49.662,3.456 L51.818,8.835 L50.982,11.002 L52.214,11.002 Z" id="ability" fill="#FFFFFF" fill-rule="nonzero"></path>
        </g>
    </g>
</svg>