<?xml version="1.0" encoding="UTF-8"?>
<svg width="352px" height="200px" viewBox="0 0 352 200" version="1.1" xmlns="http://www.w3.org/2000/svg" xmlns:xlink="http://www.w3.org/1999/xlink">
    <!-- Generator: Sketch 63.1 (92452) - https://sketch.com -->
    <title>Group 3</title>
    <desc>Created with Sketch.</desc>
    <g id="Home" stroke="none" stroke-width="1" fill="none" fill-rule="evenodd">
        <g id="mura-logo" transform="translate(-2786.000000, -889.000000)">
            <g id="Group-3" transform="translate(2786.000000, 889.000000)">
                <g id="mura-logo-200px" fill-rule="nonzero">
                    <circle id="Oval" fill="#E82425" cx="100" cy="100" r="100"></circle>
                    <path d="M34.6585867,121.786175 L42.7452799,121.786175 L41.7068602,128.153769 C44.3743007,124.03549 48.3787066,121.182861 53.7914691,121.182861 C59.8013229,121.182861 63.662946,123.805968 64.4742114,128.67839 C67.4458019,124.087405 72.4740591,121.280638 77.9022757,121.182861 C85.9889688,121.182861 90.3633117,126.429075 89.1042278,134.075434 L85.1712134,159.56548 L77.0845202,159.56548 L80.718989,136.108342 C81.5367445,131.386748 79.3106324,128.23902 74.5663525,128.23902 C68.9978271,128.23902 65.0713027,133.183577 63.9550015,140.456142 L60.917624,159.56548 L52.9023222,159.56548 L56.5367911,136.108342 C57.3545465,131.386748 55.2063159,128.23902 50.4555459,128.23902 C44.8935105,128.23902 40.9604961,133.255712 39.850685,140.456142 L36.8068174,159.56548 L28.7266144,159.56548 L34.6585867,121.786175 Z" id="Path" fill="#FFFFFF"></path>
                    <path d="M123.62551,158.968621 L115.455294,158.968621 L116.432311,152.672087 C113.246249,156.935372 108.264944,159.481184 102.944241,159.56548 C94.92484,159.56548 90.1250021,154.246221 91.4757762,146.073845 L95.344498,121.182861 L103.540943,121.182861 L99.8689354,144.191444 C99.1214196,148.913844 101.593467,152.212965 106.386748,152.212965 C112.688175,152.212965 117.40277,146.814999 118.845344,137.750615 L121.468206,121.182861 L129.631865,121.182861 L123.62551,158.968621 Z" id="Path" fill="#FFFFFF"></path>
                    <path d="M151.545252,128.827143 C146.303296,128.827143 140.078058,133.772035 138.257658,145.465325 L135.978835,159.56548 L127.700664,159.56548 L133.773094,121.790183 L142.051266,121.790183 L140.835451,129.286218 C143.267081,124.787285 148.808007,121.186827 153.744349,121.186827 C155.190207,121.14982 156.630874,121.372024 157.996379,121.842648 L156.24906,129.712502 C154.760512,129.097846 153.158487,128.79631 151.545252,128.827143 Z" id="Path" fill="#FFFFFF"></path>
                    <path d="M174.00571,121.182861 C183.57014,121.182861 189.833986,127.565812 188.467396,136.952303 L186.401696,150.378544 C186.275264,150.594915 186.503007,151.034669 186.375,151.25 C184.816995,153.870839 183.408621,156.665822 181.625,159.125 C181.522331,159.266555 180.798333,158.932518 180.694942,159.073512 L177.226057,159.073478 L178.103169,153.350719 C175.542257,157.124892 170.714938,159.56548 165.593115,159.56548 C158.864319,159.56548 154.254677,155.130989 154.254677,149.505336 C154.254677,141.885069 160.34758,137.462622 172.682477,136.225433 L173.058173,136.188917 L180.958586,135.541547 L181.035413,134.894176 C181.688446,130.31079 178.032744,127.494727 173.058173,127.494727 C168.564349,127.494727 165.005481,130.127853 164.22657,134.483297 L164.20382,134.615806 L157.103692,133.321065 C158.717066,125.921615 166.034872,121.182861 174.00571,121.182861 Z M180.011048,141.536201 L172.18106,142.351888 C165.375437,143.01868 162.078263,145.090267 162.078263,148.786755 C162.078263,151.505712 164.242234,153.447825 168.083601,153.447825 C174.238049,153.447825 178.246489,149.533033 179.742407,142.922047 L179.786969,142.72089 L179.641279,143.527821 L180.011048,141.536201 Z" id="Shape" fill="#FFFFFF"></path>
                </g>
                <g id="Group" transform="translate(208.064516, 135.483871)">
                    <path d="M72.4907735,20.1123596 C74.6114627,20.1123596 76.5287981,19.1011236 77.3712637,17.4719101 L77.3712637,19.8876404 L79.8115088,19.8876404 L79.8115088,10.8146067 C79.8115088,7.52808989 77.3422132,5.50561798 73.7980476,5.50561798 C70.7186907,5.50561798 68.3074961,7.33146067 67.8717381,10.1404494 L70.1667305,10.5617978 C70.3700843,8.65168539 71.7935606,7.5 73.7980476,7.5 C75.9477874,7.5 77.3712637,8.73595506 77.3712637,10.6741573 L77.3712637,10.9550562 L74.5243111,11.2640449 C69.8471746,11.7134831 67.5521822,13.2022472 67.5521822,15.9269663 C67.5521822,18.3707865 69.5566692,20.1123596 72.4907735,20.1123596 Z M72.8684304,18.1460674 C71.1834993,18.1460674 70.0214778,17.2191011 70.0214778,15.8988764 C70.0214778,14.4101124 71.5611563,13.4269663 74.5243111,13.1179775 L77.3712637,12.8089888 L77.3712637,13.4831461 C77.3712637,16.3202247 75.7153831,18.1460674 72.8684304,18.1460674 Z M91.0540666,20.1123596 C95.615001,20.1123596 98.1133471,16.9662921 98.1133471,12.8089888 C98.1133471,8.65168539 95.615001,5.50561798 91.0831172,5.50561798 C89.1367312,5.50561798 87.2193957,6.43258427 86.2897786,7.75280899 L86.2897786,0 L83.8204829,0 L83.8204829,19.8876404 L86.2897786,19.8876404 L86.2897786,17.8370787 C86.9579409,19.1292135 88.9043269,20.1123596 91.0540666,20.1123596 Z M90.8216623,17.9775281 C87.9456592,17.9775281 86.0864248,15.9269663 86.0864248,12.8089888 C86.0864248,9.69101124 87.9456592,7.64044944 90.8216623,7.64044944 C93.6976655,7.64044944 95.5859504,9.69101124 95.5859504,12.8089888 C95.5859504,15.9269663 93.6976655,17.9775281 90.8216623,17.9775281 Z M103.952505,3.03370787 L103.952505,0 L101.105552,0 L101.105552,3.03370787 L103.952505,3.03370787 Z M103.749151,19.8876404 L103.749151,5.73033708 L101.279856,5.73033708 L101.279856,19.8876404 L103.749151,19.8876404 Z M110.227421,19.8876404 L110.227421,0 L107.758125,0 L107.758125,19.8876404 L110.227421,19.8876404 Z M116.909045,3.03370787 L116.909045,0 L114.062092,0 L114.062092,3.03370787 L116.909045,3.03370787 Z M116.705691,19.8876404 L116.705691,5.73033708 L114.236395,5.73033708 L114.236395,19.8876404 L116.705691,19.8876404 Z M126.205216,20.1123596 C126.989581,20.1123596 127.773945,20.0280899 128.500209,19.7752809 L128.325906,17.5842697 C127.744895,17.8651685 127.076733,17.9494382 126.495722,17.9494382 C125.217498,17.9494382 124.345982,17.2191011 124.345982,15.7303371 L124.345982,7.83707865 L128.267805,7.83707865 L128.267805,5.73033708 L124.345982,5.73033708 L124.345982,1.43258427 L121.876686,1.43258427 L121.876686,5.73033708 L119.145936,5.73033708 L119.145936,7.83707865 L121.876686,7.83707865 L121.876686,15.6460674 C121.876686,18.7640449 123.70687,20.1123596 126.205216,20.1123596 Z M135.879045,25 L143.548387,5.73033708 L141.02099,5.73033708 L136.721511,16.5730337 L132.422031,5.73033708 L129.749382,5.73033708 L135.472338,19.6910112 L133.351649,25 L135.879045,25 Z" id="ability" fill="#1E1E1E" fill-rule="nonzero"></path>
                    <ellipse id="Oval-Copy" fill="#E82425" cx="60.1636622" cy="17.7083333" rx="3.16650854" ry="3.125"></ellipse>
                    <path d="M7.40703752,20.8333333 C11.7181648,20.8333333 14.8430088,17.7764423 14.8430088,13.5416667 C14.8430088,9.30689103 11.7181648,6.25 7.40703752,6.25 C3.06697647,6.25 0,9.30689103 0,13.5416667 C0,17.7764423 3.06697647,20.8333333 7.40703752,20.8333333 Z M7.40703752,18.7019231 C4.48472975,18.7019231 2.51723541,16.5705128 2.51723541,13.5416667 C2.51723541,10.5128205 4.48472975,8.38141026 7.40703752,8.38141026 C10.3293453,8.38141026 12.2968396,10.5128205 12.2968396,13.5416667 C12.2968396,16.5705128 10.3293453,18.7019231 7.40703752,18.7019231 Z M23.6388658,20.6089744 L27.0530472,9.86778846 L30.4672285,20.6089744 L32.868729,20.6089744 L37.3534587,6.47435897 L34.7783558,6.47435897 L31.6535119,17.2716346 L28.2393305,6.47435897 L25.8667638,6.47435897 L22.4525825,17.2716346 L19.2988048,6.47435897 L16.7815694,6.47435897 L21.2373654,20.6089744 L23.6388658,20.6089744 Z M42.561532,20.6089744 L42.561532,14.4110577 C42.561532,10.6810897 44.2975564,8.40945513 47.017328,8.40945513 C49.0716236,8.40945513 50.3157744,9.78365385 50.3157744,11.6907051 L50.3157744,20.6089744 L52.7751423,20.6089744 L52.7751423,11.2419872 C52.7751423,8.2411859 50.6051118,6.25 47.5670691,6.25 C45.3391711,6.25 43.5742129,7.45592949 42.561532,9.13862179 L42.561532,6.47435897 L40.1021641,6.47435897 L40.1021641,20.6089744 L42.561532,20.6089744 Z" id="own" fill="#1E1E1E" fill-rule="nonzero"></path>
                </g>
            </g>
        </g>
    </g>
</svg>