<?xml version="1.0" encoding="UTF-8"?>
<svg width="309px" height="309px" viewBox="0 0 309 309" version="1.1" xmlns="http://www.w3.org/2000/svg" xmlns:xlink="http://www.w3.org/1999/xlink">
    <!-- Generator: Sketch 63.1 (92452) - https://sketch.com -->
    <title>mura-logo-2020</title>
    <desc>Created with Sketch.</desc>
    <g id="Home" stroke="none" stroke-width="1" fill="none" fill-rule="evenodd">
        <g id="mura-logo-2020" fill-rule="nonzero">
            <circle id="Oval" fill="#E82425" cx="154.04" cy="154.04" r="154.04"></circle>
            <circle id="Oval" fill="#E82425" cx="154.04" cy="154.04" r="154.04"></circle>
            <path d="M50.26,188.43 L62.72,188.43 L61.12,198.14 C65.23,191.86 71.4,187.51 79.74,187.51 C89,187.51 94.95,191.51 96.2,198.94 C100.778635,191.939166 108.526188,187.659102 116.89,187.51 C129.35,187.51 136.09,195.51 134.15,207.17 L128.09,246.04 L115.63,246.04 L121.23,210.27 C122.49,203.07 119.06,198.27 111.75,198.27 C103.17,198.27 97.12,205.81 95.4,216.9 L90.72,246.04 L78.37,246.04 L83.97,210.27 C85.23,203.07 81.92,198.27 74.6,198.27 C66.03,198.27 59.97,205.92 58.26,216.9 L53.57,246.04 L41.12,246.04 L50.26,188.43 Z" id="Path" fill="#FFFFFF"></path>
            <path d="M188.09,246.04 L175.63,246.04 L177.12,236.44 C172.261092,242.94001 164.664345,246.821479 156.55,246.95 C144.32,246.95 137,238.84 139.06,226.38 L144.96,188.43 L157.46,188.43 L151.86,223.51 C150.72,230.71 154.49,235.74 161.8,235.74 C171.41,235.74 178.6,227.51 180.8,213.69 L184.8,188.43 L197.25,188.43 L188.09,246.04 Z" id="Path" fill="#FFFFFF"></path>
            <path d="M231.75,199.17 C223.86,199.17 214.49,206.71 211.75,224.54 L208.32,246.04 L195.86,246.04 L205,188.44 L217.46,188.44 L215.63,199.87 C219.29,193.01 227.63,187.52 235.06,187.52 C237.236252,187.463571 239.404691,187.80239 241.46,188.52 L238.83,200.52 C236.589492,199.58277 234.178182,199.122986 231.75,199.17 Z" id="Path" fill="#FFFFFF"></path>
            <path d="M289.58,212.31 C291.98,197.57 282.15,187.51 267.06,187.51 C254.61,187.51 243.18,194.83 240.66,206.26 L251.75,208.26 C252.89,201.41 258.49,197.26 265.58,197.26 C273.35,197.26 279.06,201.61 278.04,208.69 L277.92,209.69 L265.58,210.69 C245.92,212.52 236.21,219.37 236.21,231.26 C236.21,239.95 243.41,246.8 253.92,246.8 C261.92,246.8 269.46,243.03 273.46,237.2 L272.09,246.04 L277.6,246.04 C280.741698,241.816643 283.668738,237.437765 286.37,232.92 L289.58,212.31 Z M275.86,222.04 L276.09,220.78 C273.81,231.18 267.52,237.35 257.81,237.35 C251.81,237.35 248.43,234.35 248.43,230.15 C248.43,224.44 253.58,221.24 264.21,220.21 L276.44,218.95 L275.86,222.04 Z" id="Shape" fill="#FFFFFF"></path>
        </g>
    </g>
</svg>