<?xml version="1.0" encoding="UTF-8"?>
<svg width="30px" height="30px" viewBox="0 0 30 30" version="1.1" xmlns="http://www.w3.org/2000/svg" xmlns:xlink="http://www.w3.org/1999/xlink">
    <!-- Generator: Sketch 63.1 (92452) - https://sketch.com -->
    <title>mura-logo-30px</title>
    <desc>Created with Sketch.</desc>
    <g id="Home" stroke="none" stroke-width="1" fill="none" fill-rule="evenodd">
        <g id="mura-logo" transform="translate(-3556.000000, -974.000000)" fill-rule="nonzero">
            <g id="mura-logo-30px" transform="translate(3556.000000, 974.000000)">
                <circle id="Oval" fill="#E82425" cx="15" cy="15" r="15"></circle>
                <path d="M5.19878801,18.2679263 L6.41179198,18.2679263 L6.25602903,19.2230653 C6.65614511,18.6053235 7.25680598,18.1774291 8.06872036,18.1774291 C8.97019843,18.1774291 9.5494419,18.5708952 9.67113171,19.3017585 C10.1168703,18.6131108 10.8711089,18.1920957 11.6853414,18.1774291 C12.8983453,18.1774291 13.5544968,18.9643613 13.3656342,20.111315 L12.775682,23.934822 L11.562678,23.934822 L12.1078484,20.4162513 C12.2305117,19.7080123 11.8965949,19.2358529 11.1849529,19.2358529 C10.3496741,19.2358529 9.7606954,19.9775365 9.59325023,21.0684213 L9.1376436,23.934822 L7.93534833,23.934822 L8.48051866,20.4162513 C8.60318198,19.7080123 8.28094738,19.2358529 7.56833188,19.2358529 C6.73402658,19.2358529 6.14407441,19.9883569 5.97760276,21.0684213 L5.52102261,23.934822 L4.30899215,23.934822 L5.19878801,18.2679263 Z" id="Path" stroke="#FFFFFF" stroke-width="0.15" fill="#FFFFFF"></path>
                <path d="M18.5438265,23.8452931 L17.3182941,23.8452931 L17.4648466,22.9008131 C16.9869374,23.5403058 16.2397416,23.9221776 15.4416362,23.934822 C14.238726,23.934822 13.5187503,23.1369331 13.7213664,21.9110767 L14.3016747,18.1774291 L15.5311414,18.1774291 L14.9803403,21.6287165 C14.8682129,22.3370766 15.2390201,22.8319448 15.9580122,22.8319448 C16.9032262,22.8319448 17.6104154,22.0222499 17.8268016,20.6625922 L18.2202309,18.1774291 L19.4447797,18.1774291 L18.5438265,23.8452931 Z" id="Path" stroke="#FFFFFF" stroke-width="0.15" fill="#FFFFFF"></path>
                <path d="M22.7317878,19.3240715 C21.9454944,19.3240715 21.0117087,20.0658052 20.7386486,21.8197988 L20.3968253,23.934822 L19.1550996,23.934822 L20.0659642,18.2685274 L21.3076899,18.2685274 L21.1253176,19.3929327 C21.4900621,18.7180928 22.3212011,18.1780241 23.0616523,18.1780241 C23.278531,18.172473 23.494631,18.2058037 23.6994568,18.2763972 L23.4373591,19.4568753 C23.2140768,19.364677 22.973773,19.3194466 22.7317878,19.3240715 Z" id="Path" stroke="#FFFFFF" stroke-width="0.15" fill="#FFFFFF"></path>
                <path d="M26.1008565,18.1774291 C27.535521,18.1774291 28.4750978,19.1348718 28.2701094,20.5428455 L27.9602544,22.5567817 C27.9412895,22.5892372 27.9754511,22.6552004 27.95625,22.6875 C27.7225493,23.0806259 27.5112932,23.4998732 27.24375,23.86875 C27.2283497,23.8899833 27.11975,23.8398776 27.1042413,23.8610268 L26.5839085,23.8610217 L26.7154754,23.0026079 C26.3313386,23.5687337 25.6072407,23.934822 24.8389672,23.934822 C23.8296478,23.934822 23.1382016,23.2696484 23.1382016,22.4258005 C23.1382016,21.2827604 24.052137,20.6193933 25.9023716,20.433815 L25.9587259,20.4283376 L27.1437879,20.331232 L27.155312,20.2341264 C27.2532669,19.5466185 26.7049116,19.124209 25.9587259,19.124209 C25.2846523,19.124209 24.7508221,19.5191779 24.6339856,20.1724945 L24.630573,20.1923709 L23.5655537,19.9981597 C23.8075599,18.8882423 24.9052308,18.1774291 26.1008565,18.1774291 Z M27.0016573,21.2304301 L25.8271591,21.3527832 C24.8063156,21.452802 24.3117394,21.7635401 24.3117394,22.3180132 C24.3117394,22.7258569 24.636335,23.0171738 25.2125402,23.0171738 C26.1357073,23.0171738 26.7369734,22.4299549 26.9613611,21.438307 L26.9680453,21.4081334 L26.9461919,21.5291732 L27.0016573,21.2304301 Z" id="Shape" stroke="#FFFFFF" stroke-width="0.15" fill="#FFFFFF"></path>
            </g>
        </g>
    </g>
</svg>